<svg aria-hidden="true" style="position: absolute; width: 0; height: 0; overflow: hidden;" version="1.1"
     xmlns="http://www.w3.org/2000/svg" xmlns:xlink="http://www.w3.org/1999/xlink">
    <defs>
        <symbol id="icon-menu" viewBox="0 0 20 20">
            <path d="M16.4 9h-12.8c-0.552 0-0.6 0.447-0.6 1s0.048 1 0.6 1h12.8c0.552 0 0.6-0.447 0.6-1s-0.048-1-0.6-1zM16.4 13h-12.8c-0.552 0-0.6 0.447-0.6 1s0.048 1 0.6 1h12.8c0.552 0 0.6-0.447 0.6-1s-0.048-1-0.6-1zM3.6 7h12.8c0.552 0 0.6-0.447 0.6-1s-0.048-1-0.6-1h-12.8c-0.552 0-0.6 0.447-0.6 1s0.048 1 0.6 1z"></path>
        </symbol>
        <symbol id="icon-cancel" viewBox="0 0 32 32">
            <path d="M19.587 16.001l6.096 6.096c0.396 0.396 0.396 1.039 0 1.435l-2.151 2.151c-0.396 0.396-1.038 0.396-1.435 0l-6.097-6.096-6.097 6.096c-0.396 0.396-1.038 0.396-1.434 0l-2.152-2.151c-0.396-0.396-0.396-1.038 0-1.435l6.097-6.096-6.097-6.097c-0.396-0.396-0.396-1.039 0-1.435l2.153-2.151c0.396-0.396 1.038-0.396 1.434 0l6.096 6.097 6.097-6.097c0.396-0.396 1.038-0.396 1.435 0l2.151 2.152c0.396 0.396 0.396 1.038 0 1.435l-6.096 6.096z"></path>
        </symbol>
        <symbol id="icon-search" viewBox="0 0 32 32">
            <path d="M19.427 20.427c-1.39 0.99-3.090 1.573-4.927 1.573-4.694 0-8.5-3.806-8.5-8.5s3.806-8.5 8.5-8.5c4.694 0 8.5 3.806 8.5 8.5 0 1.837-0.583 3.537-1.573 4.927l5.585 5.585c0.55 0.55 0.546 1.431-0 1.976l-0.023 0.023c-0.544 0.544-1.431 0.546-1.976 0l-5.585-5.585zM14.5 20c3.59 0 6.5-2.91 6.5-6.5s-2.91-6.5-6.5-6.5c-3.59 0-6.5 2.91-6.5 6.5s2.91 6.5 6.5 6.5v0z"></path>
        </symbol>
        <symbol id="icon-tag" viewBox="0 0 32 32">
            <path d="M29.013 0.059v-0.050h-9.746c-0.172-0.022-0.347-0.016-0.509 0.052-0.296 0.079-0.542 0.275-0.662 0.552l-17.817 17.816c-0.389 0.39-0.389 1.021 0 1.41l11.872 11.872c0.39 0.389 1.021 0.389 1.41 0l17.765-17.766c0.396-0.133 0.687-0.496 0.687-0.937v-9.5c0-1.761-1.306-3.204-3-3.449zM26.013 8.009c-1.104 0-2-0.896-2-2s0.896-2 2-2 2 0.896 2 2-0.896 2-2 2z"></path>
        </symbol>
        <symbol id="icon-hash" viewBox="0 0 24 24">
            <path d="M14.216 10l-0.444 4h-3.988l0.444-4zM15.006 2.89l-0.568 5.11h-3.988l0.543-4.89c0.061-0.549-0.335-1.043-0.883-1.104s-1.043 0.335-1.104 0.884l-0.568 5.11h-4.438c-0.552 0-1 0.448-1 1s0.448 1 1 1h4.216l-0.444 4h-3.772c-0.552 0-1 0.448-1 1s0.448 1 1 1h3.549l-0.543 4.89c-0.061 0.549 0.335 1.043 0.883 1.104s1.043-0.335 1.104-0.883l0.569-5.111h3.988l-0.543 4.89c-0.061 0.549 0.335 1.043 0.883 1.104s1.043-0.335 1.104-0.883l0.568-5.111h4.438c0.552 0 1-0.448 1-1s-0.448-1-1-1h-4.216l0.444-4h3.772c0.552 0 1-0.448 1-1s-0.448-1-1-1h-3.549l0.543-4.89c0.061-0.549-0.335-1.043-0.883-1.104s-1.043 0.335-1.104 0.883z"></path>
        </symbol>
        <symbol id="icon-answer" viewBox="0 0 32 32">
            <path d="M16 6c-1.717 0-3.375 0.271-4.928 0.804-1.46 0.502-2.76 1.211-3.863 2.108-2.069 1.681-3.209 3.843-3.209 6.088 0 1.259 0.35 2.481 1.039 3.63 0.711 1.185 1.781 2.268 3.093 3.133 0.949 0.625 1.587 1.623 1.755 2.747 0.056 0.375 0.091 0.753 0.105 1.129 0.233-0.194 0.461-0.401 0.684-0.624 0.755-0.755 1.774-1.172 2.828-1.172 0.168 0 0.336 0.011 0.505 0.032 0.655 0.083 1.325 0.126 1.99 0.126 1.717 0 3.375-0.271 4.928-0.804 1.46-0.502 2.76-1.211 3.863-2.108 2.069-1.681 3.209-3.843 3.209-6.088s-1.14-4.407-3.209-6.088c-1.104-0.897-2.404-1.606-3.863-2.108-1.553-0.534-3.211-0.804-4.928-0.804zM16 2v0c8.837 0 16 5.82 16 13s-7.163 13-16 13c-0.849 0-1.682-0.054-2.495-0.158-3.437 3.437-7.539 4.053-11.505 4.144v-0.841c2.142-1.049 4-2.961 4-5.145 0-0.305-0.024-0.604-0.068-0.897-3.619-2.383-5.932-6.024-5.932-10.103 0-7.18 7.163-13 16-13z"></path>
        </symbol>
        <symbol id="icon-share" viewBox="0 0 32 32">
            <path d="M27 22c-1.411 0-2.685 0.586-3.594 1.526l-13.469-6.734c0.041-0.258 0.063-0.522 0.063-0.791s-0.022-0.534-0.063-0.791l13.469-6.734c0.909 0.94 2.183 1.526 3.594 1.526 2.761 0 5-2.239 5-5s-2.239-5-5-5-5 2.239-5 5c0 0.269 0.022 0.534 0.063 0.791l-13.469 6.734c-0.909-0.94-2.183-1.526-3.594-1.526-2.761 0-5 2.239-5 5s2.239 5 5 5c1.411 0 2.685-0.586 3.594-1.526l13.469 6.734c-0.041 0.258-0.063 0.522-0.063 0.791 0 2.761 2.239 5 5 5s5-2.239 5-5c0-2.761-2.239-5-5-5z"></path>
        </symbol>
    </defs>
</svg>
